<?xml version="1.0" encoding="UTF-8"?>
<!DOCTYPE svg PUBLIC "-//W3C//DTD SVG 1.1//EN" "http://www.w3.org/Graphics/SVG/1.1/DTD/svg11.dtd">
<!-- Creator: CorelDRAW -->
<svg xmlns="http://www.w3.org/2000/svg" xml:space="preserve" width="300px" height="170px" shape-rendering="geometricPrecision" text-rendering="geometricPrecision" image-rendering="optimizeQuality" fill-rule="evenodd" clip-rule="evenodd"
viewBox="0 0 300 170.001"
 xmlns:xlink="http://www.w3.org/1999/xlink">
 <g id="Layer_x0020_1">
  <metadata id="CorelCorpID_0Corel-Layer"/>
  <path fill="slategray" d="M136.846 80.1543c6.07913,0 11.0091,4.19291 11.0091,9.35669 0,5.17795 -4.92992,9.36732 -11.0091,9.36732 -6.09213,0 -11.0209,-4.18937 -11.0209,-9.36732 0,-5.16378 4.92874,-9.35669 11.0209,-9.35669zm100.719 -21.2858l-29.8819 0 -16.1362 -36.0201 -129.111 41.8134 36.9709 82.4906 138.158 0 0 -88.2839zm-43.6878 0.00354331l-77.3882 0 67.5874 -21.8882 9.80079 21.8882zm-94.4705 5.52992l0 51.9366 -20.328 -45.3496 20.328 -6.58701zm125.254 5.42362l-112.35 0 0 66.3791 112.35 0 0 -66.3791zm-78.835 39.711l-21.0201 19.8803 91.1811 0 -12.5492 -33.9992 -9.48189 2.0185 -7.45512 -11.2311 -26.1024 30.5362 -14.5724 -7.20472zm-145.825 -109.537l300 0 0 170.001 -300 0 0 -170.001z"/>
 </g>
</svg>